Coordinates
version=1
nRows=16
nColumns=22
inDegrees=yes

Units are S.I. units (second, meters, Newtons, ...)
If the header above contains a line with 'inDegrees', this indicates whether rotational values are in degrees (yes) or radians (no).

endheader
time	pelvis_tilt	pelvis_list	pelvis_rotation	pelvis_tx	pelvis_ty	pelvis_tz	hip_flexion_r	hip_adduction_r	hip_rotation_r	knee_angle_r	ankle_angle_r	subtalar_angle_r	hip_flexion_l	hip_adduction_l	hip_rotation_l	knee_angle_l	ankle_angle_l	subtalar_angle_l	lumbar_extension	lumbar_bending	lumbar_rotation
      1.35000000	      1.74022247	      0.62513197	      3.28532932	     -1.70943229	      1.07855303	     -0.20178628	     -1.37932004	     -0.24197904	     -4.95305295	    -14.57892840	     13.85611797	     -3.54935886	     -2.70252955	     -0.88927312	      2.45985117	    -12.29448709	     13.59567834	      1.04462554	     -3.62485617	     -1.31707716	     -6.87439611
      1.36000000	      1.72773925	      0.61864469	      3.28445918	     -1.70870751	      1.07840822	     -0.20085125	     -1.39449422	     -0.17359604	     -4.90096935	    -14.60189791	     13.92033952	     -3.62796176	     -2.67198687	     -0.95085321	      2.45838798	    -12.40044508	     13.65285535	      1.11854491	     -3.65756584	     -1.28563073	     -6.90152142
      1.37000000	      1.70996070	      0.60458158	      3.28335635	     -1.70798324	      1.07824388	     -0.19986954	     -1.39828562	     -0.09444032	     -4.85223528	    -14.63449828	     13.98403887	     -3.71562543	     -2.62355891	     -1.02326089	      2.45200307	    -12.52865383	     13.73514285	      1.20182701	     -3.69252789	     -1.24890439	     -6.92570652
      1.38000000	      1.66794107	      0.57843096	      3.27869639	     -1.70728028	      1.07804280	     -0.19883394	     -1.36763436	     -0.00082537	     -4.80376258	    -14.67557692	     14.00920835	     -3.86278518	     -2.52953411	     -1.10904751	      2.45140997	    -12.69145655	     13.84132120	      1.35785165	     -3.70839351	     -1.20563228	     -6.93034470
      1.39000000	      1.65352764	      0.56885837	      3.28053981	     -1.70656732	      1.07786898	     -0.19777710	     -1.36796025	      0.07865754	     -4.74779317	    -14.72155024	     14.10606590	     -3.91884352	     -2.45841806	     -1.17965020	      2.44905302	    -12.86476743	     13.90529272	      1.40466648	     -3.76501906	     -1.17893626	     -6.98098334
      1.40000000	      1.58511020	      0.51585790	      3.27973440	     -1.70591969	      1.07760194	     -0.19664877	     -1.29563011	      0.20615370	     -4.69988414	    -14.77657402	     14.13164563	     -4.07308585	     -2.28724995	     -1.29582662	      2.45502901	    -13.11016832	     14.05654327	      1.54977940	     -3.77438370	     -1.11207520	     -6.98719469
      1.41000000	      1.52894896	      0.47553020	      3.27877293	     -1.70526874	      1.07733404	     -0.19548802	     -1.23187124	      0.32269468	     -4.64335998	    -14.84573958	     14.20516695	     -4.20050030	     -2.11085170	     -1.39910607	      2.46019139	    -13.38959168	     14.18468516	      1.65594934	     -3.80670015	     -1.05915624	     -7.01844281
      1.42000000	      1.46548240	      0.41944187	      3.28206454	     -1.70463168	      1.07703789	     -0.19427820	     -1.15810412	      0.46021117	     -4.58199103	    -14.91446741	     14.27273920	     -4.33042611	     -1.89666458	     -1.52030740	      2.47195187	    -13.72096066	     14.32935938	      1.75208198	     -3.84146151	     -0.99379346	     -7.04136394
      1.43000000	      1.36351287	      0.35884217	      3.28023212	     -1.70403015	      1.07667280	     -0.19302042	     -1.02505976	      0.60417368	     -4.48749174	    -15.01305532	     14.32045296	     -4.50695848	     -1.60695508	     -1.64269474	      2.49532832	    -14.11326958	     14.46993033	      1.89140500	     -3.84300171	     -0.92556760	     -7.08321065
      1.44000000	      1.28492512	      0.28398653	      3.27926145	     -1.70340697	      1.07630974	     -0.19172733	     -0.92136642	      0.76700906	     -4.40085097	    -15.10364934	     14.38673169	     -4.65067032	     -1.31049998	     -1.78028461	      2.52818545	    -14.56667595	     14.63433376	      1.98593812	     -3.87876240	     -0.84224060	     -7.09867553
      1.45000000	      1.18244267	      0.20227810	      3.27680724	     -1.70279417	      1.07588733	     -0.19039273	     -0.78994131	      0.93883982	     -4.30173607	    -15.19651527	     14.46232484	     -4.81163731	     -0.94758776	     -1.92228410	      2.56764044	    -15.09325946	     14.79849967	      2.09250604	     -3.89645457	     -0.75519794	     -7.10763196
      1.46000000	      1.08624741	      0.10802893	      3.27173610	     -1.70217405	      1.07544586	     -0.18902151	     -0.66344078	      1.12676350	     -4.19444992	    -15.29265233	     14.53811453	     -4.96106961	     -0.55460333	     -2.07471830	      2.62362379	    -15.68894449	     14.97143304	      2.18097252	     -3.92900665	     -0.65447106	     -7.10354345
      1.47000000	      1.01503953	     -0.00933648	      3.26359770	     -1.70155412	      1.07501275	     -0.18761052	     -0.55960143	      1.34347550	     -4.07368709	    -15.39573488	     14.59100416	     -5.08441350	     -0.15203080	     -2.24891577	      2.70544428	    -16.35076650	     15.16378702	      2.23566001	     -3.99802710	     -0.52482232	     -7.09167591
      1.48000000	      0.92768561	     -0.13209253	      3.25883527	     -1.70093204	      1.07453264	     -0.18617227	     -0.44603810	      1.56709452	     -3.95148233	    -15.48646150	     14.66161903	     -5.21743908	      0.31753537	     -2.42441377	      2.79977809	    -17.10299340	     15.34045588	      2.29774241	     -4.05418567	     -0.39174062	     -7.06757072
      1.49000000	      0.82989757	     -0.26336118	      3.25274949	     -1.70033980	      1.07402572	     -0.18470503	     -0.32399276	      1.80064823	     -3.82515743	    -15.56939554	     14.72634603	     -5.35337469	      0.84650273	     -2.60242823	      2.91642664	    -17.93948884	     15.49696663	      2.36576614	     -4.11137898	     -0.25050015	     -7.04194899
      1.50000000	      0.73670994	     -0.39862354	      3.24897957	     -1.69975630	      1.07351900	     -0.18321305	     -0.21699388	      2.04006605	     -3.70637396	    -15.63360762	     14.79076906	     -5.47886199	      1.41620029	     -2.77889070	      3.05654631	    -18.85838910	     15.62622614	      2.43423609	     -4.18321210	     -0.10633362	     -7.00543820
